HIERARCHY
ROOT Hips
{
  OFFSET 4.54204 104.534 -153.366
  CHANNELS 6 Xposition Yposition Zposition Zrotation Xrotation Yrotation
  JOINT RightUpLeg
  {
    OFFSET -8.9458 -8.66707 0.101652
    CHANNELS 3 Zrotation Xrotation Yrotation
    JOINT RightLeg
    {
      OFFSET 0 -44.4227 1.3727
      CHANNELS 3 Zrotation Xrotation Yrotation
      JOINT RightFoot
      {
        OFFSET 0.253549 -42.0924 -1.46059
        CHANNELS 3 Zrotation Xrotation Yrotation
        JOINT RightToes
        {
          OFFSET 0.04 -4.41509 8.4991
          CHANNELS 3 Zrotation Xrotation Yrotation
          End Site
          {
            OFFSET -0.08 -0.137448 9.77979
          }
        }
      }
    }
  }
  JOINT Spine
  {
    OFFSET 0 11.8905 0
    CHANNELS 3 Zrotation Xrotation Yrotation
    JOINT Spine1
    {
      OFFSET 0 25.6574 0.127663
      CHANNELS 3 Zrotation Xrotation Yrotation
      JOINT HEad
      {
        OFFSET 0 8.73416 0.011341
        CHANNELS 3 Zrotation Xrotation Yrotation
        End Site
        {
          OFFSET -0.29 12.7742 2.51395
        }
      }
      JOINT LeftShoulder1
      {
        OFFSET 8.99 -0.362252 -0.22
        CHANNELS 3 Zrotation Xrotation Yrotation
        JOINT LeftArm
        {
          OFFSET 10.2827 -0.00338 0.322123
          CHANNELS 3 Zrotation Xrotation Yrotation
          JOINT LeftForeArm
          {
            OFFSET 32.7669 0.099144 -1.42434
            CHANNELS 3 Zrotation Xrotation Yrotation
            JOINT LeftHand
            {
              OFFSET 27.5643 0.085362 1.02216
              CHANNELS 3 Zrotation Xrotation Yrotation
              End Site
              {
                OFFSET 16.7443 -0.6 1.50291
              }
            }
          }
        }
      }
      JOINT RightShoulder
      {
        OFFSET -8.99 -0.362252 -0.22
        CHANNELS 3 Zrotation Xrotation Yrotation
        JOINT RightArm
        {
          OFFSET -10.2827 -0.00338 0.322123
          CHANNELS 3 Zrotation Xrotation Yrotation
          JOINT RightForeArm
          {
            OFFSET -32.8971 0.099144 -1.42434
            CHANNELS 3 Zrotation Xrotation Yrotation
            JOINT RightHand
            {
              OFFSET -27.4921 0.085362 1.02216
              CHANNELS 3 Zrotation Xrotation Yrotation
              End Site
              {
                OFFSET -16.6312 -0.6 1.50291
              }
            }
          }
        }
      }
    }
  }
  JOINT LeftUpLeg
  {
    OFFSET 8.9458 -8.66707 0.101652
    CHANNELS 3 Zrotation Xrotation Yrotation
    JOINT LeftLeg
    {
      OFFSET 0 -44.4227 1.3727
      CHANNELS 3 Zrotation Xrotation Yrotation
      JOINT LeftFoot
      {
        OFFSET -0.253549 -42.0924 -1.46059
        CHANNELS 3 Zrotation Xrotation Yrotation
        JOINT LeftToes
        {
          OFFSET -0.04 -4.41509 8.4991
          CHANNELS 3 Zrotation Xrotation Yrotation
          End Site
          {
            OFFSET 0.08 -0.047448 9.77979
          }
        }
      }
    }
  }
}
MOTION
Frames:	21
Frame Time:	0.0166667
4.23944 102.972 -168.54 -2.69333 0.0283396 6.30653 4.59074 -29.5297 -1.60108 3.17449 30.4661 -16.0156 0.95446 -7.87898 -0.177127 0.0462048 0.000533964 0.662642 1.26666 4.21761 -1.38524 -4.71824 6.32785 0.120834 10.3218 -2.814 -4.49891 9.93923e-016 0 7.95139e-016 -83.2205 -39.6081 -24.1629 -15.8232 15.6926 -25.5221 0.368473 9.90896 -0.00117927 6.34016 -0.784674 -9.0831 80.4252 -34.1085 5.23302 19.0236 14.548 14.3005 -0.369625 9.91382 0.00119886 5.22719 -0.314725 0.0264076 -2.39133 42.0071 -3.72206 -0.0684411 -5.01206 0.0155879 2.8588e-011 -6.18936e-012 -3.98945e-011 
4.35287 103.092 -166.345 -2.95902 -0.523632 5.48266 4.88886 -28.0946 -1.61871 3.88446 31.7079 -16.2584 1.51505 -10.3344 -0.12176 0.565672 1.61892 1.00218 1.57248 4.20519 -1.08847 -3.19752 6.44592 0.0968051 9.10341 -2.56509 -4.14504 -0 -1.59028e-015 -0 -84.2857 -40.8657 -23.997 -15.6439 15.6912 -25.8954 0.368473 9.90896 -0.00117927 4.22042 -0.581734 -8.23017 81.7804 -33.9313 5.8516 18.7701 14.5388 14.3239 -0.369625 9.91382 0.00119886 5.83935 -1.40217 2.68786 -0.740099 45.4913 -5.06163 -0.528239 0.390397 0.0472854 1.76338 5.00695 -7.87522 
4.45979 103.225 -164.157 -3.21515 -1.04815 4.60458 5.19617 -26.5841 -1.43995 4.64053 32.7676 -16.3341 1.86449 -12.5373 -0.0832629 0.833943 2.59444 1.16875 1.88732 4.1537 -0.811944 -1.74201 6.57946 0.071635 7.95397 -2.33341 -3.71686 -5.96354e-016 3.18055e-015 -0 -85.2102 -42.2819 -23.7151 -15.5054 15.7054 -26.3072 0.368473 9.90896 -0.00117927 2.10066 -0.388834 -7.27815 83.1531 -33.696 6.50275 18.5384 14.5439 14.4257 -0.369625 9.91382 0.00119886 6.42101 -2.54392 5.06806 0.94697 48.8971 -6.50699 -0.913333 5.66547 0.0840155 3.96342 9.69733 -13.1197 
4.55955 103.378 -161.993 -3.46801 -1.49393 3.56487 5.53392 -24.8783 -0.738531 5.49321 33.3776 -15.7625 1.50916 -13.9712 -0.102213 0.324123 1.44546 0.766382 2.24897 3.98241 -0.573373 -0.373149 6.77193 0.0412074 6.96198 -2.17674 -3.09902 -6.62086e-032 -3.18055e-015 -1.19271e-015 -85.8326 -44.1432 -23.1562 -15.461 15.7567 -26.8344 0.368473 9.90896 -0.00117927 -0.0574529 -0.218483 -6.08317 84.5871 -33.3169 7.23501 18.3597 14.5885 14.7504 -0.369625 9.91382 0.00119886 6.77427 -3.87927 6.73207 2.36627 52.2185 -8.23786 -1.11963 11.036 0.149017 3.60857 14.4872 -10.2982 
4.62804 103.581 -159.835 -3.59684 -1.89745 2.46622 5.73886 -23.0234 0.237541 6.37617 33.6204 -15.2153 1.05272 -15.1761 -0.128898 -0.312014 0.04694 0.285476 2.58236 3.7778 -0.400705 0.712396 6.95472 0.0133235 6.14774 -1.99136 -2.33941 -4.96962e-017 -1.59028e-015 -3.97569e-016 -85.9868 -46.2226 -22.2617 -15.5115 15.8419 -27.401 0.368473 9.90896 -0.00117927 -2.11681 -0.0775189 -4.6797 86.0181 -32.8275 8.03278 18.2255 14.6533 15.1785 -0.369625 9.91382 0.00119886 6.88861 -5.23321 7.85555 3.58088 55.2619 -9.40751 -1.14391 15.324 0.195138 1.27561 18.6092 -3.9783 
4.63179 103.893 -157.659 -3.44147 -2.27722 1.39301 5.64461 -20.9827 1.41602 7.30318 33.4082 -15.4351 1.04593 -16.6311 -0.1175 -0.432977 0.216034 0.143046 2.80357 3.60558 -0.341949 1.23418 7.06176 -0.00424702 5.60853 -1.67991 -1.44096 -7.45443e-017 -1.59028e-015 3.97569e-016 -85.3503 -48.3679 -20.87 -15.6964 15.9691 -27.9421 0.368473 9.90896 -0.00117927 -3.89667 0.0239285 -3.05258 87.3579 -32.2117 8.88928 18.1604 14.7265 15.618 -0.369625 9.91382 0.00119886 6.61647 -6.4703 8.38226 4.13546 57.8768 -8.65449 -0.927936 17.3298 0.167061 -1.3464 20.968 2.73303 
4.59822 104.231 -155.493 -3.12216 -2.63606 0.293426 5.33888 -18.8955 2.63334 8.15376 32.9997 -15.7823 1.17233 -18.0025 -0.0931987 -0.367611 0.6474 0.156402 2.97036 3.44744 -0.354153 1.4213 7.12885 -0.0154367 5.18189 -1.28044 -0.424036 2.59352e-016 0 1.2424e-017 -84.1031 -50.6044 -18.9841 -15.9527 16.1281 -28.5022 0.368473 9.90896 -0.00117927 -5.55844 0.0822077 -1.20693 88.7178 -31.5325 9.82572 18.0965 14.8122 16.1307 -0.369625 9.91382 0.00119886 6.11766 -7.63006 8.55552 3.80697 60.0248 -6.43573 -0.477152 17.3414 0.0948523 -4.31253 21.7051 9.89533 
4.54204 104.534 -153.366 -2.68014 -2.97626 -0.867556 4.88161 -16.9212 3.7274 8.81281 32.6322 -15.8384 1.29866 -19.0235 -0.0655653 -0.244634 0.465837 0.306239 3.1059 3.30897 -0.418249 1.37143 7.16728 -0.0203637 4.74454 -0.770032 0.723539 -6.4605e-016 -1.59028e-015 -3.97569e-016 -82.2481 -52.9668 -16.4657 -16.2306 16.3148 -29.1295 0.368473 9.90896 -0.00117927 -7.20373 0.0932073 0.895539 90.2172 -30.8296 10.8905 17.9674 14.9092 16.744 -0.369625 9.91382 0.00119886 5.52619 -8.7111 8.5673 2.41975 61.6003 -2.60561 0.266654 14.6514 -0.0204297 -6.87546 21.0307 16.3699 
4.46792 104.799 -151.256 -2.19805 -3.31773 -2.05587 4.35666 -14.9827 4.6832 9.29449 32.2826 -15.6909 1.42031 -19.9713 -0.036937 -0.0682666 0.197546 0.520546 3.23204 3.184 -0.510744 1.19871 7.18451 -0.0227317 4.27373 -0.236 1.90197 -4.96962e-016 -1.59028e-015 7.95139e-016 -79.8997 -55.223 -13.4699 -16.5294 16.5164 -29.7484 0.368473 9.90896 -0.00117927 -8.82156 0.0485482 3.13969 91.7549 -30.1526 12.0006 17.7904 15.0198 17.4689 -0.369625 9.91382 0.00119886 4.87354 -9.68365 8.5196 0.446863 62.4178 1.53419 1.10953 11.0459 -0.128958 -8.8014 18.7192 22.0793 
4.38606 104.997 -149.145 -1.78505 -3.69193 -3.27146 3.89701 -13.0376 5.34039 9.49461 32.0337 -15.1517 1.47558 -21.0984 -0.0135708 0.112541 0.135257 0.71535 3.36583 3.0622 -0.592768 1.08128 7.19581 -0.0275431 3.69513 0.195409 2.98943 2.98177e-016 2.38542e-015 -1.59028e-015 -77.2773 -57.159 -10.144 -16.8413 16.7248 -30.2915 0.368473 9.90896 -0.00117927 -10.4371 -0.0639841 5.4776 93.2482 -29.5902 13.0635 17.5633 15.15 18.3498 -0.369625 9.91382 0.00119886 4.26345 -10.4971 8.55434 -1.30264 62.4183 4.06741 1.93321 8.28759 -0.181735 -9.81537 14.3494 26.8816 
4.29461 105.146 -147.058 -1.40821 -4.0665 -4.44768 3.44797 -11.1379 5.97619 9.65684 31.7978 -14.6277 1.50209 -22.2117 0.00646881 0.293601 0.104159 0.907276 3.54613 2.96163 -0.691474 0.924858 7.18911 -0.0310308 3.08202 0.663348 4.06491 1.98785e-016 7.95139e-016 -0 -74.5632 -58.7879 -6.7463 -17.1459 16.9298 -30.7816 0.368473 9.90896 -0.00117927 -12.0331 -0.233941 7.74602 94.8005 -29.0685 14.174 17.2755 15.2837 19.3142 -0.369625 9.91382 0.00119886 3.67049 -11.2037 8.7504 -2.53659 61.7262 5.63701 2.65174 5.73958 -0.197191 -9.76891 9.2802 30.5639 
4.19823 105.25 -145.024 -1.07436 -4.41021 -5.51629 2.9587 -9.33409 6.92865 10.0717 31.4888 -14.6138 1.50323 -23.187 0.0200326 0.450954 0.0660089 1.07475 3.83774 2.90695 -0.822702 0.707207 7.15492 -0.0309874 2.44484 1.33799 5.18017 -1.09332e-015 0 -7.95139e-016 -72.2038 -60.0838 -3.75361 -17.4193 17.1192 -31.2169 0.368473 9.90896 -0.00117927 -13.6636 -0.467929 9.74478 96.5458 -28.528 15.4349 16.8965 15.402 20.2763 -0.369625 9.91382 0.00119886 3.11782 -11.8631 9.31808 -2.80353 60.3878 6.43026 3.07851 3.37011 -0.169734 -9.05365 4.26886 32.6796 
4.08762 105.313 -143.019 -0.757804 -4.75389 -6.48076 2.42643 -7.58551 7.82199 10.4644 31.2091 -14.6454 1.51913 -24.0698 0.0357824 0.599275 -0.0961193 1.2484 4.18014 2.868 -0.981534 0.390506 7.10084 -0.0290044 1.85845 1.99757 6.29653 7.95139e-016 1.59028e-015 1.59028e-015 -70.07 -61.1148 -1.06981 -17.6654 17.293 -31.6022 0.368473 9.90896 -0.00117927 -15.1539 -0.726082 11.5372 98.2833 -28.0081 16.7164 16.4895 15.5242 21.3185 -0.369625 9.91382 0.00119886 2.58641 -12.3957 10.0116 -2.63973 58.4179 6.67897 3.39053 1.12622 -0.118097 -8.00271 -0.474906 33.9439 
3.94472 105.337 -141.019 -0.44027 -5.1395 -7.29961 1.89802 -5.83904 8.32702 10.5662 31.0758 -14.2307 1.68043 -24.8682 0.0798752 0.596075 -0.643791 1.30787 4.54808 2.81913 -1.18324 -0.103774 7.03312 -0.0260558 1.45163 2.47563 7.41694 9.93923e-016 0 1.59028e-015 -68.1012 -61.904 1.27716 -17.8799 17.4457 -31.934 0.368473 9.90896 -0.00117927 -16.2908 -0.967542 13.1181 99.8266 -27.5477 17.8959 16.114 15.6668 22.5309 -0.369625 9.91382 0.00119886 2.06004 -12.7129 10.6814 -2.39909 55.8225 6.50309 3.7238 -1.19718 -0.0540375 -6.88298 -4.50058 34.5783 
3.8004 105.325 -139.05 -0.110497 -5.50297 -8.03985 1.31227 -4.17497 8.66316 10.676 30.9479 -13.9583 1.72131 -25.5701 0.0975808 0.898015 -1.1811 1.6849 4.8998 2.77161 -1.38307 -0.675575 6.94634 -0.0231144 1.13401 2.78238 8.464 5.96354e-016 -7.95139e-016 1.59028e-015 -66.4102 -62.5496 3.27768 -18.0631 17.5819 -32.2355 0.368473 9.90896 -0.00117927 -17.2687 -1.20685 14.4923 101.29 -27.0996 19.0659 15.7408 15.8098 23.8072 -0.369625 9.91382 0.00119886 1.50049 -12.915 11.2377 -2.29254 52.6105 6.53598 4.00126 -3.17549 0.00914199 -5.87881 -7.9159 34.8625 
3.68401 105.28 -137.139 0.28458 -5.79559 -8.76493 0.540306 -2.65243 8.95861 11.1257 30.6204 -14.6178 1.15223 -26.0349 -0.0168511 2.34796 -1.52887 3.23578 5.16204 2.74304 -1.53799 -1.27138 6.8296 -0.0211524 0.846459 2.84661 9.33937 1.49089e-015 7.95139e-016 -0 -65.0685 -63.1676 4.93878 -18.2104 17.7045 -32.5382 0.368473 9.90896 -0.00117927 -18.2536 -1.45194 15.6391 102.774 -26.6048 20.3052 15.3537 15.9412 25.0673 -0.369625 9.91382 0.00119886 0.830358 -13.0967 11.4609 -2.45801 48.7832 7.45502 4.20876 -4.32539 0.0516951 -5.05585 -10.4802 35.0175 
3.58203 105.204 -135.264 0.643574 -6.01326 -9.44259 -0.223436 -1.28323 9.14094 11.5239 30.4107 -15.1048 0.764759 -26.6565 -0.0886649 3.65034 -1.29649 4.56575 5.40474 2.68885 -1.65817 -1.83012 6.70564 -0.0211424 0.640122 2.7518 10.1072 -1.98785e-016 -7.95139e-016 -1.59028e-015 -63.9443 -63.6995 6.34995 -18.3294 17.8108 -32.8133 0.368473 9.90896 -0.00117927 -19.1177 -1.68307 16.63 104.115 -26.1346 21.5235 14.9838 16.0651 26.3202 -0.369625 9.91382 0.00119886 0.157704 -13.1903 11.5941 -2.52076 44.3757 8.50547 4.27675 -5.02815 0.0804023 -4.48081 -12.3989 35.3454 
3.49341 105.104 -133.413 0.896743 -6.13568 -10.0714 -0.842202 -0.118881 9.16711 11.521 30.6755 -14.2496 1.52759 -28.0328 0.100639 3.34564 0.457009 4.06693 5.68437 2.55463 -1.7516 -2.31381 6.60055 -0.0236403 0.575787 2.55472 10.8288 5.96354e-016 0 -3.18055e-015 -62.8149 -64.1157 7.6998 -18.4292 17.9022 -33.0496 0.368473 9.90896 -0.00117927 -19.7353 -1.87888 17.5739 105.154 -25.7559 22.6836 14.6527 16.1817 27.5566 -0.369625 9.91382 0.00119886 -0.455681 -13.1419 11.6793 -2.53336 39.3301 9.64481 4.05132 -5.50238 0.0935676 -4.21202 -13.7035 36.584 
3.41006 104.965 -131.583 1.00538 -6.164 -10.6218 -1.26718 0.902329 9.07262 11.3621 31.1 -13.0586 2.45779 -29.4108 0.331333 2.78143 2.25356 3.24215 5.96706 2.38749 -1.78176 -2.59993 6.49344 -0.0295953 0.53912 2.26092 11.4165 6.4605e-016 0 -0 -61.9913 -64.4132 8.72504 -18.5015 17.9704 -33.2254 0.368473 9.90896 -0.00117927 -20.266 -2.05244 18.3383 106.001 -25.4263 23.7169 14.3736 16.2932 28.75 -0.369625 9.91382 0.00119886 -0.939236 -12.9991 12.102 -2.10098 33.9585 10.0538 3.77774 -5.7527 0.0967841 -4.07851 -14.4764 37.824 
3.32693 104.767 -129.762 0.883462 -6.08322 -11.0613 -1.39264 1.82856 8.87899 11.225 31.4597 -12.2508 2.71589 -30.0845 0.409567 2.82499 2.47072 3.25861 6.2454 2.21645 -1.69706 -2.48728 6.37001 -0.0412548 0.390631 1.88186 11.7797 6.95746e-016 0 -0 -61.8028 -64.5767 9.16021 -18.5348 18.0034 -33.3031 0.368473 9.90896 -0.00117927 -20.8948 -2.22139 18.7967 106.727 -25.1227 24.5113 14.1746 16.4062 29.8838 -0.369625 9.91382 0.00119886 -1.17941 -12.7775 13.4195 -1.26453 28.4483 8.97785 3.74759 -5.85586 0.0958214 -3.9583 -14.9535 38.3583 
3.2338 104.539 -127.968 0.600427 -5.92169 -11.398 -1.27089 2.64596 8.58679 11.0173 31.8804 -11.5508 2.75376 -30.5132 0.435488 3.03981 2.45544 3.48781 6.49966 2.04127 -1.55088 -2.17412 6.23665 -0.0539504 0.248908 1.45362 11.9896 -1.10348e-032 -3.97569e-016 -1.59028e-015 -61.9813 -64.6258 9.19215 -18.5486 18.0142 -33.3193 0.368473 9.90896 -0.00117927 -21.4218 -2.35258 19.0404 107.275 -24.8637 25.1601 14.0342 16.5125 30.9183 -0.369625 9.91382 0.00119886 -1.26609 -12.5023 15.1537 -0.430035 22.933 7.00141 3.6704 -5.81399 0.0886517 -3.97802 -14.9232 38.3581 
